<?xml version="1.0" encoding="UTF-8"?>
<svg id="Layer_1" xmlns="http://www.w3.org/2000/svg" version="1.1" viewBox="0 0 136 136">
  <!-- Generator: Adobe Illustrator 29.0.1, SVG Export Plug-In . SVG Version: 2.1.0 Build 192)  -->
  <defs>
    <style>
      .st0 {
        fill: #4998d3;
      }

      .st1 {
        fill: #0057ac;
      }
    </style>
  </defs>
  <g>
    <path class="st0" d="M68.1,86.4h-1.4v-46h1.4v46ZM71.3,85.4h-1.4v-45h1.4v45ZM65,85.4h-1.4v-45h1.4v45Z"/>
    <path class="st1" d="M67.5,100.2c10,0,18.1-8.6,18.1-19.3v-41.6s0-.8,0-.8h-11.5v44.3c0,4.7-3.4,6.8-6.6,6.8s-6.6-2.2-6.6-6.8v-44.3h-11.5v42.4c0,10.8,8.2,19.3,18.1,19.3"/>
  </g>
  <g>
    <path d="M67.7,12.2v-.5c.4,0,.7,0,.9-.2.2-.2.3-.4.3-.7s0-.6,0-1l.5-6.7c0-.2,0-.4,0-.6,0-.2,0-.4,0-.5-.2,0-.4,0-.6,0s-.4,0-.6,0v-.7s3.6.2,3.6.2v.5c-.4,0-.7,0-.9.2s-.3.4-.3.7,0,.6,0,1l-.5,6.7c0,.3,0,.5,0,.7,0,.2,0,.4,0,.5l2.9.2c.7,0,1.2-.1,1.5-.5.4-.4.6-1,.6-1.9h.5s-.3,3.3-.3,3.3l-7.7-.5Z"/>
    <path d="M79.6,13.9c-.7-.2-1.3-.5-1.8-.9s-.8-1-1-1.7c-.2-.7-.2-1.4,0-2.3.2-.7.5-1.3.9-1.9.5-.6,1-1,1.7-1.2s1.4-.3,2.1-.1c.4,0,.8.2,1.2.5s.6.5.9.8c.2.3.4.7.4,1.2,0,.5,0,1,0,1.5l-5.4-1.1c-.2.8-.2,1.5-.2,2.1,0,.6.2,1.1.5,1.5.3.4.8.7,1.3.8.3,0,.7,0,1,0,.4,0,.7-.1,1-.3.3-.1.6-.3.8-.5l.3.4c-.4.4-.8.6-1.2.8-.4.2-.9.3-1.3.3-.4,0-.8,0-1.2,0ZM78.6,8.1l3.9.8c0-.4.1-.7,0-1.1,0-.4-.1-.7-.3-1-.2-.3-.5-.5-.9-.5-.6-.1-1.1,0-1.6.2-.5.3-.8.8-1.1,1.5Z"/>
    <path d="M86.6,15.9c-.5-.2-.9-.4-1.2-.7s-.6-.5-.8-.8v.5c-.1,0-.7-.2-.7-.2l.8-2.6.5.2c-.1.4-.1.8,0,1.2,0,.4.3.7.5,1s.6.5,1,.6c.3,0,.5.1.8.1s.5,0,.8-.2c.2-.1.4-.3.5-.6,0-.3,0-.5,0-.8s-.3-.5-.5-.7-.5-.5-.7-.7c-.3-.2-.5-.5-.8-.7-.2-.2-.5-.5-.7-.7s-.3-.6-.4-.9c0-.3,0-.6.1-1,0-.2.2-.4.4-.6s.4-.4.6-.6c.3-.2.6-.2,1-.3.4,0,.8,0,1.3.2.3,0,.5.2.8.4.3.2.5.5.8.8l.2-.6.6.2-.9,2.6-.5-.2c.1-.4.1-.7.1-1.1,0-.4-.1-.7-.3-1-.2-.3-.5-.5-.9-.7-.5-.2-.8-.2-1.2,0s-.6.3-.7.6c-.1.3-.1.6,0,.9s.3.5.6.8c.3.3.5.5.8.8.3.3.6.6.9.9.3.3.5.6.6,1,.1.4.1.8,0,1.2-.2.5-.4.9-.8,1.1-.4.2-.8.4-1.2.4-.4,0-.9,0-1.3-.2Z"/>
    <path d="M98.9,10.4c0-.1.2-.3.3-.4,0-.1.2-.3.3-.4-.2,0-.3-.2-.5-.3s-.3-.2-.5-.3l.3-.6c.4.2.7.4.9.5s.4.2.6.2c.1,0,.3,0,.4,0l.4.2-2.4,4c.4,0,.8-.1,1.2,0s.8.2,1.3.5c.6.3,1,.8,1.3,1.4.3.6.4,1.2.4,1.8s-.3,1.4-.7,2.1c-.5.8-1,1.3-1.7,1.7-.7.4-1.4.5-2.1.5s-1.4-.2-2-.6c-.3-.2-.6-.4-.9-.8s-.5-.7-.6-1.2l-.7.4-.5-.3,5.1-8.3ZM96.2,17.3c-.3.5-.4.9-.4,1.2,0,.3,0,.6.3.9.2.2.4.4.7.6.4.3.9.4,1.3.3.5,0,.9-.2,1.3-.6.4-.3.8-.8,1.2-1.3.4-.6.6-1.2.7-1.7.1-.6.1-1.1,0-1.5-.1-.4-.4-.8-.9-1.1-.3-.2-.6-.3-1-.3s-.7,0-1.1.1l-2.1,3.4Z"/>
    <path d="M100.9,22.7c.3.2.5.3.7.2.2,0,.4-.2.6-.4.2-.2.4-.5.6-.8l2.2-2.8c.1-.1.2-.3.3-.4.1-.1.2-.2.4-.4-.2-.1-.3-.2-.5-.3-.2-.1-.3-.2-.5-.3l.4-.5c.4.3.7.5.9.6.2.1.4.2.5.2.1,0,.3,0,.4,0l.4.3-3.9,5c-.1.2-.2.3-.3.4-.1.1-.2.2-.4.4.1,0,.3.2.4.3.1,0,.3.2.4.3l-.4.5-2.5-1.9.3-.4ZM107.6,16.5c-.2-.1-.3-.3-.3-.6s0-.5.2-.7.4-.3.6-.4c.2,0,.5,0,.6.1.2.1.3.3.3.6,0,.2,0,.5-.2.7-.2.2-.4.3-.6.4-.2,0-.5,0-.6-.2Z"/>
    <path d="M110.9,18.7c.1-.1.2-.2.3-.3s.2-.2.4-.4c-.1-.1-.3-.2-.4-.4s-.3-.2-.4-.4l.5-.5c.3.3.6.5.8.7.2.1.4.2.5.3.1,0,.3,0,.4,0l.3.3-3.2,3.4c.4,0,.8,0,1.2.2.4.2.8.4,1.1.7.5.5.8,1,1,1.6.2.6.2,1.2,0,1.9s-.6,1.3-1.1,1.8c-.6.6-1.3,1.1-2,1.3s-1.4.2-2.1,0-1.3-.5-1.8-1-.5-.6-.7-.9c-.2-.4-.3-.8-.3-1.3l-.8.2-.4-.4,6.8-7ZM106.8,24.9c-.4.4-.6.8-.7,1.1,0,.3,0,.6,0,.9s.3.5.5.7c.4.3.8.5,1.2.6.5,0,.9,0,1.4-.3s1-.6,1.4-1c.5-.5.9-1,1.1-1.5.2-.5.3-1,.3-1.5,0-.5-.3-.9-.7-1.3-.2-.2-.6-.4-.9-.5-.4-.1-.7-.2-1.1-.1l-2.7,2.9Z"/>
    <path d="M110.1,31.1c.2.2.4.4.6.4s.4,0,.7-.3c.2-.2.5-.4.8-.6l5.7-4.7c.1-.1.3-.2.4-.3s.3-.2.4-.3c-.1-.1-.3-.3-.4-.4s-.3-.3-.4-.4l.5-.4c.3.4.5.6.7.8.2.2.4.3.5.3.1,0,.2,0,.4.1l.3.3-7.8,6.5c-.2.1-.3.2-.4.3s-.3.2-.4.3c.1.1.2.2.3.4.1.1.2.2.3.4l-.5.4-2-2.4.4-.3Z"/>
    <path d="M112.7,34.2c.2.3.4.4.6.4.2,0,.4,0,.7-.2s.5-.3.8-.6l2.9-2.1c.1,0,.3-.2.4-.3.1,0,.3-.2.5-.3-.1-.1-.2-.3-.4-.4s-.2-.3-.4-.4l.5-.4c.3.4.5.6.7.8s.3.3.5.4c.1,0,.2.1.3.1l.3.4-5.1,3.7c-.2.1-.3.2-.5.3-.1,0-.3.2-.4.3.1.1.2.3.3.4,0,.1.2.3.3.4l-.5.4-1.9-2.6.4-.3ZM120.9,30.1c-.1-.2-.2-.4-.1-.6,0-.2.2-.4.4-.6.2-.2.4-.2.7-.2.2,0,.4.1.6.3.1.2.2.4.1.6s-.2.4-.4.6c-.2.2-.4.2-.7.2-.2,0-.4-.1-.6-.3Z"/>
    <path d="M116.4,41.1c-.4-.6-.5-1.3-.5-2s.2-1.3.5-1.9c.3-.6.9-1.1,1.5-1.5.7-.4,1.4-.6,2.2-.6.7,0,1.4.1,2,.5.6.3,1.1.8,1.5,1.5.4.6.5,1.3.5,2,0,.7-.2,1.3-.5,1.9s-.8,1.1-1.5,1.5c-.7.4-1.4.6-2.2.6-.7,0-1.4-.1-2.1-.5s-1.1-.8-1.5-1.5ZM117,40.9c.3.5.6.8,1.1.9.4.1.9.1,1.4,0s1-.3,1.5-.6c.4-.2.8-.5,1.1-.8.4-.3.6-.6.9-1,.2-.3.4-.7.4-1.1s0-.7-.2-1.1c-.3-.5-.6-.8-1.1-.9-.4-.1-.9-.2-1.4,0s-1,.3-1.5.6c-.6.3-1.1.7-1.5,1.1-.4.4-.7.9-.8,1.4-.1.5,0,1,.2,1.5Z"/>
    <path d="M119.7,48c0-.2-.2-.5-.2-.7s0-.5.1-.8.3-.5.6-.8c.3-.3.7-.5,1.3-.7l4.2-1.7-.5-1.1.6-.3c.1.2.3.5.6.7.3.2.6.3,1,.4s.8,0,1.2,0l.2.5-2,.8,1,2.4-.6.2-1-2.4-4,1.6c-.4.2-.8.4-1.1.6-.3.2-.5.4-.5.6s0,.5,0,.7c.1.3.3.5.5.7.3.2.5.3.9.4l-.2.5c-.4,0-.7-.2-1-.3-.3-.1-.5-.3-.7-.4-.2-.2-.3-.3-.4-.5,0-.2-.2-.3-.2-.4Z"/>
    <path d="M122.7,55c0,.3.2.5.4.6.2,0,.4,0,.7,0,.3,0,.6-.1,1-.2l2.1-.6c.9-.2,1.5-.5,1.8-.9s.5-.9.3-1.5c-.1-.4-.3-.7-.6-1-.3-.3-.6-.5-.9-.7l-4.5,1.2c-.2,0-.4,0-.5.1s-.3,0-.5,0c0,.2.1.3.2.5,0,.2,0,.3.2.5l-.6.2-.8-3.1h.5c0,.2.2.4.4.5.2,0,.4,0,.7,0,.3,0,.6-.1,1-.2l7.1-1.9c.2,0,.3,0,.5-.1.1,0,.3,0,.5-.1,0-.2-.1-.4-.2-.5,0-.2-.1-.3-.2-.5l.6-.2c.1.4.2.8.3,1,.1.2.2.4.3.5,0,.1.2.2.3.2v.4c.1,0-4.5,1.2-4.5,1.2.3.2.5.4.7.6s.4.5.6.8c.2.3.3.5.4.8.2.9.1,1.6-.3,2.1s-1.2,1-2.4,1.3l-2.8.8c-.2,0-.4,0-.5.1-.2,0-.3,0-.5,0,0,.2.1.3.2.5,0,.2,0,.3.2.5l-.6.2-.8-3.1h.5Z"/>
    <path d="M123.3,62.6c0-.7,0-1.4.3-2,.3-.6.7-1.1,1.3-1.5.6-.4,1.3-.7,2.1-.7.7,0,1.4,0,2.1.3.7.3,1.2.7,1.7,1.2.5.5.7,1.2.8,2,0,.4,0,.8,0,1.2,0,.4-.3.8-.5,1.1s-.6.6-1,.8c-.4.2-.9.4-1.5.4l-.7-5.5c-.8,0-1.5.3-2,.5s-1,.6-1.3,1c-.3.4-.4.9-.3,1.5,0,.3.1.6.3,1,.2.3.3.6.6.9.2.3.5.5.7.6l-.3.4c-.5-.2-.9-.5-1.2-.9-.3-.4-.5-.7-.7-1.1-.2-.4-.3-.8-.3-1.1ZM128.5,59.8l.5,4c.4,0,.7-.1,1.1-.3.3-.1.6-.4.8-.6s.3-.6.2-1c0-.6-.3-1.1-.7-1.4-.4-.4-1-.6-1.8-.6ZM132.7,62.2l1.4-1.9c.2-.2.3-.3.5-.4.2,0,.3,0,.4,0,.1,0,.2,0,.2.1,0,0,0,0,.1.2,0,0,0,.2,0,.4,0,.1-.1.3-.4.5l-1.9,1.5-.4-.4Z"/>
    <path d="M119.9,71.4h.5c0,.3,0,.6.2.7.2.1.4.2.7.2.3,0,.6,0,1,0h2.3c-.3-.2-.5-.6-.7-1s-.2-.9-.2-1.4c0-.6.2-1.2.5-1.8s.8-.9,1.4-1.2c.6-.3,1.3-.4,2.1-.4.9,0,1.6.2,2.3.6.6.4,1.1.9,1.5,1.5s.5,1.3.5,2c0,.4,0,.8-.2,1.2-.1.4-.2.7-.2.9,0,.1,0,.2,0,.3,0,0,0,.2.2.3v.4s-10.3-.3-10.3-.3c-.2,0-.4,0-.6,0s-.3,0-.5,0c0,.2,0,.3,0,.5,0,.2,0,.3,0,.5h-.6s0-3.2,0-3.2ZM124.4,70.7c0,.3,0,.7.3,1,.2.3.4.6.7.8h4.1c.4.1.8,0,1,0,.3-.1.5-.3.6-.5.1-.3.2-.6.2-1.1,0-.5-.1-.9-.4-1.3s-.7-.7-1.2-.9-1.1-.3-1.8-.3c-.7,0-1.3,0-1.8.2s-1,.4-1.3.8c-.3.4-.5.8-.5,1.3Z"/>
    <path d="M122.9,78.3c.1-.6.3-1,.6-1.3.3-.3.7-.6,1.2-.7s1.2,0,2.1,0l2.7.5c.2,0,.3,0,.5,0,.2,0,.3,0,.5.1,0-.2,0-.4,0-.5,0-.2,0-.4,0-.5h.6c0,.1,0,.6,0,.6,0,.4,0,.8,0,1,0,.2.1.4.2.5v.4c0,0-4.8-.9-4.8-.9-.9-.2-1.6-.2-2,0-.5.2-.8.6-.9,1.2,0,.4,0,.8.2,1.2.2.4.4.7.7,1l4,.7c.2,0,.5,0,.6.1s.4,0,.5.2c0-.2,0-.4,0-.6,0-.2,0-.4,0-.6h.6c0,.1,0,.6,0,.6,0,.4,0,.8,0,1,0,.2.1.4.2.5v.4c0,0-5.9-1.1-5.9-1.1-.2,0-.4,0-.7-.1s-.5-.1-.7-.2c0,.2,0,.4,0,.6,0,.2,0,.4,0,.6h-.6c0-.1.4-2.3.4-2.3.2,0,.3,0,.5,0s.3,0,.4,0c-.3-.4-.5-.8-.6-1.3-.2-.5-.2-1-.1-1.4Z"/>
    <path d="M120.6,87.2c.2-.7.6-1.2,1.1-1.7.5-.4,1.1-.7,1.8-.8s1.4,0,2.2.2c.7.2,1.3.6,1.8,1.1.5.5.8,1.1,1,1.8.2.7.1,1.4-.1,2.1-.1.4-.3.8-.6,1.1-.3.3-.6.6-.9.7s-.8.3-1.2.3-1,0-1.5-.3l1.7-5.2c-.8-.3-1.4-.4-2.1-.4-.6,0-1.2,0-1.6.3s-.8.7-.9,1.2c-.1.3-.2.6-.2,1,0,.4,0,.7.1,1,0,.3.2.6.4.9l-.4.3c-.3-.4-.5-.8-.7-1.3-.1-.5-.2-.9-.1-1.3,0-.4,0-.8.2-1.2ZM126.5,86.9l-1.3,3.8c.4.1.7.2,1.1.2.4,0,.7,0,1-.2.3-.2.5-.4.6-.8.2-.6.2-1.1,0-1.6-.2-.5-.7-.9-1.4-1.3Z"/>
    <path d="M117.8,93.9c.2-.5.5-.9.8-1.2.3-.3.6-.5.9-.7l-.5-.2.3-.6,2.5,1.1-.2.4c-.4-.2-.8-.2-1.2-.2s-.8.2-1.1.4-.6.5-.7.9c-.1.2-.2.5-.2.8s0,.5,0,.8c0,.2.3.4.5.5.3.1.5.2.8,0,.2,0,.5-.2.8-.4s.5-.4.8-.6c.3-.2.5-.4.8-.7.3-.2.5-.4.8-.6.3-.2.6-.2.9-.3.3,0,.6,0,1,.2.2,0,.4.2.6.4.2.2.4.4.5.7.1.3.2.6.2,1,0,.4-.1.8-.4,1.3-.1.3-.3.5-.5.8s-.5.5-.9.7l.5.2-.3.6-2.5-1.2.2-.4c.3.1.7.2,1.1.2s.7,0,1-.2c.3-.2.6-.4.8-.8.2-.4.3-.8.2-1.2,0-.3-.3-.6-.6-.7-.3-.1-.6-.2-.9,0-.3,0-.6.2-.8.5-.3.2-.6.5-.9.7-.3.3-.7.5-1,.8-.3.2-.7.4-1.1.5-.4,0-.8,0-1.2-.2-.5-.2-.8-.5-1-.9-.2-.4-.3-.8-.2-1.2,0-.4.2-.9.4-1.3Z"/>
    <path d="M120.6,109.5c.2-.3.3-.5.3-.7,0-.2,0-.4-.2-.5-.1-.1-.3-.3-.4-.4l-3.1-2.5c-.5-.4-.9-.7-1.4-1s-1-.5-1.4-.6c-.5-.1-1,0-1.4,0-.5.2-.9.5-1.4,1.1-.5.6-.7,1.2-.7,1.8,0,.6.1,1.2.5,1.7.3.6.8,1.1,1.5,1.6l3.4,2.8c.2.1.3.3.5.4.1.1.3.2.4.4.1-.2.2-.3.3-.5s.2-.3.3-.5l.5.4-1.8,2.3-.4-.3c.2-.3.3-.6.3-.8,0-.2-.2-.4-.4-.6s-.5-.4-.7-.7l-2.8-2.3c-.5-.4-1-.9-1.4-1.4-.4-.5-.7-1-.8-1.6s-.2-1.1,0-1.7c.1-.6.4-1.2.9-1.8.5-.6,1.1-1.1,1.6-1.4s1.1-.4,1.6-.4c.6,0,1.2.2,1.8.5.6.3,1.3.8,2.1,1.4l2.5,2c.2.2.5.4.7.6s.5.4.6.6c.1-.2.2-.3.3-.5s.2-.3.3-.5l.5.4-2.2,2.7-.4-.3Z"/>
    <path d="M104.8,110.9c.5-.4,1-.7,1.6-.8s1.2,0,1.8.2,1.2.7,1.7,1.3c.6.6.9,1.3,1.1,2.1.2.7.1,1.4,0,2.1-.2.7-.6,1.3-1.2,1.8-.3.2-.5.4-.9.6-.3.2-.6.3-.8.3l1.4,1.6c.1.1.2.2.3.4,0,.1.2.3.3.4.1-.1.3-.3.4-.4.1-.1.3-.3.4-.4l.4.5c-.3.3-.6.5-.8.7-.2.2-.3.4-.3.5s0,.3,0,.4l-.3.3-6.7-7.7c-.1-.1-.2-.3-.3-.4s-.2-.3-.3-.5c-.1.1-.3.3-.4.4-.1.1-.3.3-.4.4l-.4-.5,1.7-1.5c.1,0,.2.2.3.3,0,0,.2.2.3.3,0-.4.1-.9.3-1.3.2-.4.5-.8.9-1.2ZM104.9,111.8c-.3.2-.5.5-.6.9-.1.4-.2.8-.2,1.1,0,0,.2.2.3.3s.2.2.3.3l2.9,3.4c.3,0,.6,0,.9-.2.3-.1.5-.3.8-.5.4-.3.6-.8.7-1.2s0-1-.2-1.5-.6-1.1-1.1-1.6c-.4-.5-.9-.8-1.3-1.1-.5-.3-.9-.4-1.4-.4-.4,0-.9.2-1.2.5Z"/>
    <path d="M97.5,116.4c.6-.4,1.2-.6,1.9-.6.7,0,1.3.1,1.9.5.6.3,1.2.9,1.6,1.6.4.6.6,1.3.7,2s0,1.4-.3,2c-.3.6-.8,1.2-1.4,1.6-.4.2-.8.4-1.1.5-.4,0-.8,0-1.2,0-.4,0-.8-.3-1.2-.5-.4-.3-.7-.7-1-1.2l4.6-3c-.4-.7-.9-1.2-1.3-1.6-.5-.4-1-.7-1.5-.7-.5,0-1,0-1.5.4-.3.2-.5.4-.7.7s-.4.6-.5.9c-.1.3-.2.6-.2.9h-.5c0-.6,0-1.1.3-1.5.2-.4.4-.8.7-1.1.3-.3.6-.6.9-.8ZM102.2,119.8l-3.4,2.1c.2.3.4.6.7.8s.6.4.9.4c.3,0,.7,0,1-.2.5-.3.8-.7,1-1.3.1-.5,0-1.2-.3-1.9Z"/>
    <path d="M88.6,121c.8.8,1.6,1.6,2.4,2.4.8.8,1.6,1.6,2.4,2.4.3.3.5.5.8.8.3.3.5.5.8.8.2.3.5.5.8.8,0-.1,0-.2-.1-.3s0-.2-.1-.3c-.1-.4-.3-.8-.5-1.3-.2-.5-.4-1-.6-1.6-.2-.6-.4-1.1-.6-1.7s-.4-1.1-.6-1.6c0-.2-.2-.4-.2-.6,0-.2-.1-.4-.2-.6-.2,0-.4.2-.5.2-.2,0-.4.2-.5.2l-.3-.6,2.8-1.1.2.5c-.3.1-.5.3-.6.5s-.1.4,0,.6.1.4.2.7l2.4,6.7c0,.2.1.4.2.6s.1.4.2.6c.2,0,.3-.2.5-.2.2,0,.3-.2.5-.2l.2.6-2.2.9-4.8-4.8c-.2-.2-.5-.5-.7-.7s-.5-.5-.7-.7c-.2-.2-.5-.5-.7-.7h0c0,.3,0,.7,0,1.1,0,.4,0,.8,0,1.1,0,1.2,0,2.5,0,3.7,0,1.3,0,2.5,0,3.9l-2.2.9-.2-.5c.2,0,.4-.2.5-.4.1-.2.2-.4.1-.6,0-.3-.1-.6-.3-1l-3-6.5c0-.2-.2-.3-.2-.5,0-.2-.1-.3-.2-.4-.2,0-.3.2-.5.2s-.4.2-.5.2l-.3-.6,3.3-1.3.2.5c-.3.1-.5.3-.6.5s-.1.4,0,.7.2.6.3.9l2.2,4.7c0,.2.1.3.2.5,0,.2.1.3.2.5,0,.2.1.3.2.5,0,0,0-.2,0-.3,0,0,0-.2,0-.3v-9.4c0,0,.5-.2.5-.2Z"/>
    <path d="M78,128.9v1.1c.1,0-5.4.7-5.4.7v-1c-.1,0,5.4-.8,5.4-.8Z"/>
    <path d="M66.9,125.4v.5c-.4,0-.7,0-.9.2-.2.2-.3.4-.3.7,0,.3,0,.6,0,1l-.5,6.7c0,.2,0,.4,0,.6,0,.2,0,.4,0,.5.2,0,.4,0,.6,0,.2,0,.4,0,.6,0v.7c0,0-3.6-.3-3.6-.3v-.5c.4,0,.7,0,.9-.2.2-.2.3-.4.3-.7s0-.6,0-1l.5-6.7c0-.3,0-.5,0-.7,0-.2,0-.4,0-.5l-2.9-.2c-.7,0-1.2.1-1.5.5-.4.4-.6,1-.7,1.9h-.5s.3-3.3.3-3.3l7.7.6Z"/>
    <path d="M55,123.7c.7.2,1.3.5,1.8.9.5.5.8,1,1,1.7.2.7.2,1.4,0,2.3-.2.7-.5,1.3-.9,1.9s-1,1-1.7,1.2-1.4.3-2.1.1c-.4,0-.8-.3-1.2-.5-.3-.2-.6-.5-.8-.8-.2-.3-.4-.7-.4-1.2,0-.5,0-1,0-1.5l5.4,1.1c.2-.8.2-1.5.2-2.1,0-.6-.2-1.1-.5-1.5-.3-.4-.8-.7-1.3-.8-.3,0-.7,0-1,0-.4,0-.7.1-1,.3-.3.1-.6.3-.8.5l-.3-.4c.4-.4.8-.6,1.2-.8s.9-.3,1.3-.3c.4,0,.8,0,1.2,0ZM55.9,129.5l-3.9-.9c0,.4-.1.7,0,1.1,0,.4.1.7.3,1,.2.3.5.5.9.5.6.1,1.1,0,1.6-.2.5-.3.9-.8,1.1-1.5Z"/>
    <path d="M47.9,121.6c.5.2.9.4,1.2.7s.6.5.8.8v-.5c.1,0,.7.2.7.2l-.8,2.6-.5-.2c.1-.4.1-.8,0-1.2,0-.4-.3-.7-.5-1s-.6-.5-.9-.6c-.3,0-.5-.1-.8-.1-.3,0-.5,0-.8.2-.2.1-.4.3-.5.6,0,.3-.1.5,0,.8,0,.2.3.5.5.7s.5.5.7.7c.3.2.5.5.7.7s.5.5.7.8.3.6.4.9c0,.3,0,.6-.1,1,0,.2-.2.4-.4.6-.2.2-.4.4-.7.6-.3.2-.6.2-1,.3s-.8,0-1.3-.2c-.3,0-.5-.2-.8-.5s-.5-.5-.8-.8l-.2.6-.6-.2.9-2.6.5.2c-.1.4-.1.7-.1,1.1s.1.7.3,1c.2.3.5.5.9.7.5.2.8.2,1.2,0,.3-.1.6-.3.7-.6.1-.3.1-.6,0-.9-.1-.3-.3-.5-.6-.8-.3-.3-.5-.5-.8-.8-.3-.3-.6-.6-.9-.9-.3-.3-.5-.7-.6-1-.1-.4-.1-.8,0-1.2.2-.5.5-.9.8-1.1.4-.2.8-.4,1.2-.4.4,0,.9,0,1.3.2Z"/>
    <path d="M35.7,127.1c0,.1-.2.3-.3.4,0,.1-.2.3-.3.4.2,0,.3.2.5.3.2,0,.3.2.5.3l-.3.6c-.4-.2-.7-.4-.9-.5-.2,0-.4-.2-.6-.2s-.3,0-.4,0l-.4-.2,2.4-4c-.4,0-.8.1-1.2,0-.4,0-.8-.2-1.3-.5-.6-.3-1-.8-1.3-1.4s-.4-1.2-.4-1.8c0-.7.3-1.4.7-2,.5-.8,1-1.3,1.7-1.7.7-.4,1.4-.5,2.1-.5s1.4.2,2,.6.6.4.9.8c.3.3.5.7.6,1.2l.7-.4.5.3-5.1,8.3ZM38.4,120.2c.3-.5.4-.9.4-1.2,0-.3,0-.6-.3-.9-.2-.2-.4-.4-.7-.6-.4-.3-.9-.4-1.3-.3s-.9.2-1.3.5c-.4.3-.8.8-1.2,1.3-.4.6-.6,1.2-.8,1.7-.1.6-.1,1.1,0,1.5.1.4.4.8.9,1.1.3.2.6.3,1,.3.4,0,.7,0,1.1,0l2.1-3.4Z"/>
    <path d="M26.9,121c.2.1.3.3.3.6,0,.2,0,.5-.2.7s-.4.3-.6.4-.5,0-.6-.1c-.2-.1-.3-.3-.3-.6s0-.5.2-.7.4-.3.6-.4c.2,0,.5,0,.6.2ZM33.7,114.8c-.3-.2-.5-.3-.7-.2-.2,0-.4.2-.6.4-.2.2-.4.5-.6.8l-2.2,2.8c-.1.1-.2.3-.3.4-.1.1-.2.2-.4.4.2.1.3.2.5.3.2.1.3.2.5.3l-.4.5c-.4-.3-.7-.5-.9-.6-.2-.1-.4-.2-.5-.2s-.3,0-.4,0l-.4-.3,3.9-5c.1-.2.2-.3.3-.4s.2-.2.4-.4c-.1,0-.3-.2-.4-.3-.1,0-.3-.2-.4-.3l.4-.5,2.5,2-.3.4Z"/>
    <path d="M23.7,118.7c-.1.1-.2.2-.3.3-.1.1-.2.2-.4.4.1.1.3.2.4.4s.3.2.4.4l-.5.5c-.3-.3-.6-.6-.8-.7-.2-.1-.4-.2-.5-.3-.1,0-.3,0-.4,0l-.3-.3,3.2-3.3c-.4,0-.8,0-1.2-.2-.4-.2-.8-.4-1.1-.7-.5-.5-.8-1-1-1.6s-.1-1.2,0-1.9c.2-.6.6-1.3,1.1-1.8.6-.6,1.3-1.1,2-1.3.7-.2,1.4-.2,2.1,0s1.3.5,1.8,1c.3.2.5.6.7,1s.3.8.3,1.3l.8-.2.4.4-6.8,7ZM27.8,112.5c.4-.4.6-.8.7-1.1,0-.3,0-.6,0-.9-.1-.3-.3-.5-.5-.7-.4-.3-.8-.5-1.2-.6-.5,0-.9,0-1.4.2-.5.2-1,.6-1.4,1-.5.5-.9,1-1.1,1.5-.2.5-.4,1-.3,1.5,0,.5.3.9.6,1.3.2.2.5.4.9.5.4.1.7.2,1.1.1l2.8-2.8Z"/>
    <path d="M24.5,106.3c-.2-.2-.4-.4-.6-.4s-.4,0-.7.3c-.2.2-.5.4-.8.6l-5.7,4.7c-.1.1-.3.2-.4.3-.1,0-.3.2-.4.3.1.1.3.3.4.4.1.1.3.3.4.4l-.5.4c-.3-.4-.5-.6-.7-.8-.2-.2-.4-.3-.5-.3s-.2,0-.4-.1l-.3-.3,7.8-6.5c.2-.1.3-.2.4-.3.1,0,.3-.2.4-.3-.1-.1-.2-.2-.3-.4s-.2-.2-.3-.4l.5-.4,2,2.5-.4.3Z"/>
    <path d="M13.7,107.2c.1.2.2.4.1.6,0,.2-.2.4-.4.6s-.4.2-.7.2-.4-.1-.6-.3c-.1-.2-.2-.4-.1-.6s.2-.4.4-.6c.2-.2.4-.2.7-.2.2,0,.4.1.6.3ZM22,103.2c-.2-.3-.4-.4-.6-.4s-.4,0-.7.2c-.2.2-.5.3-.8.6l-2.9,2.1c-.1,0-.3.2-.4.3-.1,0-.3.2-.5.3.1.1.2.3.3.4.1.1.2.3.3.4l-.5.4c-.3-.4-.5-.6-.7-.8-.2-.2-.3-.3-.5-.4s-.2-.1-.3-.1l-.3-.4,5.1-3.7c.2-.1.3-.2.5-.3s.3-.2.4-.3c-.1-.1-.2-.3-.3-.4,0-.1-.2-.3-.3-.4l.5-.4,1.9,2.6-.4.3Z"/>
    <path d="M18.3,96.3c.4.6.5,1.3.5,2,0,.7-.2,1.3-.5,1.9-.4.6-.9,1.1-1.5,1.5-.7.4-1.4.6-2.2.6-.7,0-1.4-.1-2-.5-.6-.3-1.1-.8-1.5-1.5-.4-.6-.5-1.3-.5-2s.2-1.3.5-1.9c.3-.6.9-1.1,1.5-1.5.7-.4,1.4-.6,2.2-.6.7,0,1.4.1,2.1.5.6.3,1.1.8,1.5,1.5ZM17.7,96.5c-.3-.5-.6-.8-1.1-.9-.4-.1-.9-.1-1.4,0s-1,.3-1.5.6c-.4.2-.8.5-1.1.8-.4.3-.6.6-.9,1-.2.3-.4.7-.4,1.1s0,.7.2,1.1c.3.5.6.8,1.1.9s.9.2,1.4,0,1-.3,1.5-.6c.6-.3,1.1-.7,1.5-1.1.4-.4.7-.9.8-1.4s0-1-.2-1.5Z"/>
    <path d="M15,89.4c0,.2.2.5.2.7,0,.3,0,.5-.1.8-.1.3-.3.5-.6.8-.3.3-.7.5-1.3.7l-4.2,1.7.5,1.1-.6.3c-.1-.2-.3-.5-.6-.7-.3-.2-.6-.3-1-.4-.4,0-.8,0-1.2,0l-.2-.5,2-.8-1-2.4.6-.2,1,2.4,4-1.6c.4-.2.8-.4,1.1-.6.3-.2.5-.4.5-.6,0-.2,0-.5,0-.7-.1-.3-.3-.5-.5-.7-.3-.2-.5-.3-.9-.4l.2-.5c.4,0,.7.2,1,.3.3.1.5.3.7.4s.3.3.4.5c0,.2.2.3.2.4Z"/>
    <path d="M12.1,82.3c0-.3-.2-.5-.4-.6-.2,0-.4,0-.7,0s-.6.1-1,.2l-2.1.6c-.9.2-1.5.5-1.8.9-.4.4-.5.9-.3,1.5.1.4.3.7.6,1,.3.3.6.5.9.7l4.5-1.2c.2,0,.4,0,.5-.1.2,0,.3,0,.5,0,0-.2-.1-.3-.1-.5,0-.2,0-.3-.1-.5l.6-.2.8,3.1h-.5c0-.2-.2-.4-.4-.5-.2,0-.4,0-.7,0-.3,0-.6.1-1,.2l-7.2,1.9c-.2,0-.3,0-.5.1-.1,0-.3,0-.5,0,0,.2.1.4.2.5,0,.2.1.4.2.5l-.6.2c-.1-.4-.2-.8-.3-1-.1-.2-.2-.4-.3-.5s-.2-.2-.3-.2v-.4c-.1,0,4.5-1.2,4.5-1.2-.3-.2-.5-.4-.7-.6-.2-.2-.4-.5-.6-.8-.2-.3-.3-.6-.4-.8-.2-.9-.1-1.6.3-2.1.4-.5,1.3-1,2.4-1.3l2.8-.8c.2,0,.4,0,.5-.1.2,0,.3,0,.5,0,0-.2-.1-.3-.1-.5s0-.3-.1-.5l.6-.2.8,3.1h-.5Z"/>
    <path d="M2.1,75.1l-1.5,1.9c-.2.2-.3.3-.5.4-.2,0-.3,0-.4,0s-.2,0-.2-.1c0,0,0,0-.1-.2,0,0,0-.2,0-.4s.1-.3.4-.5l2-1.5.4.4ZM11.5,74.8c0,.7,0,1.4-.3,2s-.7,1.1-1.3,1.5-1.3.6-2.1.7c-.7,0-1.4,0-2.1-.3-.7-.3-1.2-.7-1.7-1.2s-.7-1.2-.8-2c0-.4,0-.8,0-1.2s.3-.8.5-1.1c.3-.3.6-.6,1-.8s.9-.4,1.5-.4l.7,5.5c.8,0,1.5-.2,2-.5.6-.2,1-.6,1.3-1s.4-.9.3-1.5c0-.3-.1-.6-.3-1-.2-.3-.3-.6-.6-.9-.2-.3-.5-.5-.7-.6l.3-.4c.5.2.9.5,1.2.9s.5.8.7,1.2c.2.4.3.8.3,1.1ZM6.3,77.5l-.4-4c-.4,0-.7.1-1.1.3s-.6.4-.8.6c-.2.3-.3.6-.2,1,0,.6.3,1.1.7,1.4.4.4,1,.6,1.8.6Z"/>
    <path d="M15,65.9h-.5c0-.3,0-.6-.2-.7s-.4-.2-.7-.2c-.3,0-.6,0-1,0h-2.3c.3.2.5.5.7.9s.2.9.2,1.4c0,.6-.2,1.2-.6,1.8s-.8.9-1.4,1.2c-.6.3-1.3.4-2.1.4-.9,0-1.6-.2-2.3-.6s-1.1-.9-1.5-1.5c-.3-.6-.5-1.3-.5-2,0-.4,0-.8.2-1.2.1-.4.2-.7.2-.9,0-.1,0-.2,0-.3s0-.2-.2-.3v-.4s10.3.3,10.3.3c.2,0,.4,0,.6,0,.2,0,.3,0,.5,0,0-.2,0-.3,0-.5s0-.3,0-.5h.6s-.1,3.2-.1,3.2ZM10.5,66.6c0-.3,0-.7-.2-1-.2-.3-.4-.6-.7-.8h-4.1c-.4-.2-.8-.1-1,0-.3.1-.5.3-.6.5s-.2.6-.2,1.1c0,.5.1.9.4,1.3.3.4.7.7,1.2.9.5.2,1.1.3,1.8.4.7,0,1.3,0,1.8-.2s1-.4,1.3-.8c.3-.4.5-.8.5-1.3Z"/>
    <path d="M12,59.1c-.1.6-.3,1-.6,1.3s-.7.6-1.2.7-1.2,0-2.1,0l-2.7-.5c-.2,0-.3,0-.5,0s-.3,0-.5-.1c0,.2,0,.4,0,.5s0,.4,0,.5h-.6c0-.1,0-.6,0-.6,0-.4,0-.8,0-1,0-.2-.1-.4-.2-.5v-.4c0,0,4.8.9,4.8.9.9.2,1.6.2,2,0,.5-.2.8-.6.9-1.2,0-.4,0-.8-.2-1.2-.2-.4-.4-.7-.7-1l-4-.7c-.2,0-.5,0-.6-.1s-.4,0-.5-.2c0,.2,0,.4,0,.6s0,.4,0,.6h-.6c0-.1,0-.6,0-.6,0-.4,0-.8,0-1,0-.2-.1-.4-.2-.5v-.4c0,0,5.9,1.1,5.9,1.1.2,0,.4,0,.7.1s.5.1.7.2c0-.2,0-.4,0-.6s0-.4,0-.6h.6c0,.1-.4,2.3-.4,2.3-.2,0-.3,0-.5,0-.2,0-.3,0-.4,0,.3.4.5.8.6,1.3.1.5.2,1,0,1.4Z"/>
    <path d="M14.3,50.2c-.2.7-.6,1.2-1.1,1.7s-1.1.7-1.8.8c-.7.1-1.4,0-2.2-.2-.7-.2-1.3-.6-1.8-1.1-.5-.5-.8-1.1-1-1.8-.2-.7-.1-1.4.1-2.1.1-.4.3-.8.6-1.1.3-.3.6-.6.9-.7s.8-.3,1.2-.3c.5,0,1,0,1.5.3l-1.7,5.2c.7.3,1.4.4,2.1.4.6,0,1.2,0,1.6-.3.4-.3.8-.7,1-1.2.1-.3.2-.6.2-1s0-.7-.1-1c0-.3-.2-.6-.4-.9l.4-.3c.3.4.5.8.7,1.3.1.5.2.9.1,1.3,0,.4,0,.8-.2,1.2ZM8.5,50.5l1.3-3.8c-.4-.1-.7-.2-1.1-.2s-.7,0-1,.2c-.3.2-.5.4-.6.8-.2.6-.2,1.1,0,1.6.2.5.7.9,1.4,1.3Z"/>
    <path d="M17.2,43.5c-.2.5-.5.9-.8,1.2s-.6.5-.9.7l.5.2-.3.6-2.4-1.1.2-.4c.4.2.8.2,1.2.2.4,0,.8-.2,1.1-.4.3-.2.6-.5.7-.9.1-.2.2-.5.2-.8s0-.5,0-.8c0-.2-.3-.4-.5-.5s-.5-.2-.8,0c-.3,0-.5.2-.8.4-.3.2-.5.4-.8.6-.3.2-.5.4-.8.7-.3.2-.5.4-.8.6-.3.2-.6.2-.9.3-.3,0-.6,0-1-.2-.2,0-.4-.2-.6-.4-.2-.2-.4-.4-.5-.7s-.2-.6-.2-1c0-.4.1-.8.4-1.3.1-.3.3-.5.5-.8s.5-.5.9-.7l-.5-.2.3-.6,2.4,1.2-.2.4c-.3-.1-.7-.2-1.1-.2-.4,0-.7,0-1,.2s-.6.4-.8.8c-.2.4-.3.8-.2,1.2,0,.3.3.6.6.7.3.1.6.2.9,0s.6-.2.8-.5c.3-.2.6-.5.9-.7.3-.3.7-.5,1-.8s.7-.4,1.1-.5c.4,0,.8,0,1.2.2.5.2.8.5,1,.9.2.4.3.8.2,1.2,0,.4-.2.9-.4,1.3Z"/>
    <path d="M14.4,27.9c-.2.3-.3.5-.3.7,0,.2,0,.4.2.5s.3.3.4.4l3,2.5c.5.4.9.7,1.4,1,.5.3.9.5,1.4.6s1,0,1.4,0c.5-.2.9-.5,1.4-1.1.5-.6.7-1.2.8-1.8,0-.6-.1-1.2-.5-1.7-.3-.6-.8-1.1-1.4-1.6l-3.4-2.8c-.2-.1-.3-.3-.5-.4-.1-.1-.3-.2-.4-.4-.1.2-.2.3-.3.4-.1.1-.2.3-.3.4l-.5-.4,1.8-2.2.4.3c-.2.3-.3.6-.3.8s.2.4.4.6c.2.2.5.4.7.7l2.8,2.3c.5.4,1,.9,1.4,1.4.4.5.7,1,.8,1.6.2.6.2,1.1,0,1.7-.1.6-.4,1.2-.9,1.8-.5.6-1.1,1.1-1.6,1.4s-1.1.4-1.6.4c-.6,0-1.2-.2-1.8-.5-.6-.3-1.3-.8-2.1-1.4l-2.5-2c-.2-.2-.5-.4-.7-.6-.3-.2-.5-.4-.6-.6-.1.2-.2.3-.3.5-.1.1-.2.3-.3.5l-.5-.4,2.2-2.7.4.3Z"/>
    <path d="M30.3,26.6c-.5.4-1,.7-1.6.8s-1.2,0-1.8-.2-1.2-.7-1.7-1.3c-.6-.6-.9-1.3-1.1-2.1-.2-.7-.1-1.4,0-2.1.2-.7.6-1.3,1.2-1.8.3-.2.5-.4.9-.6.3-.2.6-.3.8-.3l-1.4-1.6c-.1-.1-.2-.2-.3-.4,0-.1-.2-.3-.3-.4-.1.1-.3.3-.4.4s-.3.3-.4.4l-.4-.5c.3-.3.6-.5.8-.7.2-.2.3-.4.3-.5,0-.1,0-.3,0-.4l.3-.3,6.6,7.7c.1.1.2.3.3.4.1.1.2.3.3.5.1-.1.3-.3.4-.4.1-.1.3-.3.4-.4l.4.5-1.7,1.5c-.1,0-.2-.2-.3-.3s-.2-.2-.3-.3c0,.4-.1.9-.3,1.3-.2.4-.5.8-.9,1.1ZM30.2,25.6c.3-.2.5-.5.6-.9.1-.4.2-.8.2-1.1,0,0-.2-.2-.3-.3s-.2-.2-.3-.3l-2.9-3.4c-.3,0-.6,0-.9.2-.3.1-.5.3-.8.5-.4.3-.6.8-.7,1.2,0,.5,0,1,.2,1.5.2.5.6,1.1,1,1.6.4.5.9.8,1.3,1.1s.9.4,1.4.4c.4,0,.9-.2,1.2-.5Z"/>
    <path d="M37.6,21.1c-.6.4-1.2.6-1.9.6-.7,0-1.3-.1-1.9-.5-.6-.3-1.1-.9-1.6-1.6-.4-.6-.6-1.3-.7-2,0-.7,0-1.4.3-2s.8-1.2,1.4-1.6c.4-.2.8-.4,1.2-.5.4,0,.8,0,1.2,0,.4,0,.8.3,1.2.5s.7.7,1,1.2l-4.6,3c.4.7.9,1.2,1.3,1.6.5.4.9.7,1.5.7.5,0,1,0,1.5-.4.3-.2.5-.4.7-.7.2-.3.4-.6.5-.9s.2-.6.2-.9h.5c0,.6-.1,1.1-.3,1.5-.2.4-.4.8-.7,1.1-.3.3-.6.6-.9.8ZM32.9,17.7l3.4-2.1c-.2-.3-.4-.6-.7-.8-.3-.2-.6-.4-.9-.4-.3,0-.7,0-1,.2-.5.3-.8.7-1,1.3-.1.5,0,1.2.3,1.9Z"/>
    <path d="M46.5,16.5c-.8-.8-1.6-1.6-2.4-2.4-.8-.8-1.6-1.6-2.4-2.4-.3-.3-.5-.5-.8-.8-.3-.3-.5-.5-.8-.8-.2-.3-.5-.5-.7-.8,0,.1,0,.2.1.3,0,.1,0,.2.1.3.1.4.3.8.5,1.3s.4,1,.6,1.6c.2.6.4,1.1.6,1.7.2.6.4,1.1.6,1.6,0,.2.2.4.2.6,0,.2.1.4.2.6.2,0,.4-.2.5-.2.2,0,.4-.2.5-.2l.3.6-2.8,1.1-.2-.5c.3-.1.5-.3.6-.5,0-.2.1-.4,0-.6,0-.2-.1-.4-.2-.7l-2.3-6.8c0-.2-.1-.4-.2-.6s-.1-.4-.2-.6c-.2,0-.3.2-.5.2s-.3.1-.5.2l-.2-.6,2.2-.9,4.8,4.8c.2.2.5.5.7.7s.5.5.7.7c.2.2.5.5.7.7h0c0-.3,0-.7,0-1.1,0-.4,0-.8,0-1.1,0-1.2,0-2.5,0-3.7s0-2.5,0-3.9l2.2-.8.2.5c-.2,0-.4.2-.5.4-.1.2-.2.4-.1.6,0,.3.1.6.3,1l3,6.5c0,.2.2.3.2.5,0,.2.1.3.2.4.2,0,.3-.2.5-.2.2,0,.4-.2.5-.2l.3.6-3.3,1.3-.2-.5c.3-.1.5-.3.6-.5s.1-.4,0-.7c0-.3-.2-.6-.3-.9l-2.2-4.7c0-.2-.1-.3-.2-.5,0-.2-.1-.3-.2-.5,0-.2-.1-.3-.2-.5,0,0,0,.2,0,.3s0,.2,0,.3v9.4c-.1,0-.6.2-.6.2Z"/>
    <path d="M57.1,8.7v-1.1c-.1,0,5.4-.7,5.4-.7v1c.1,0-5.4.7-5.4.7Z"/>
  </g>
</svg>