<svg width="156" height="43" viewBox="0 0 156 43" fill="none" xmlns="http://www.w3.org/2000/svg">
<path d="M11.5691 39.4859C17.9356 39.4859 23.1381 34.0158 23.1381 27.1608L23.1427 0.642967V0.158813H22.5876H16.3471H15.7935V0.642967V28.4103C15.7935 31.3875 13.6497 32.7723 11.5721 32.7723C9.49299 32.7723 7.3508 31.3875 7.3508 28.4103V0.642967V0.158813H6.79718H0.555155H0V0.642967L0.00307572 27.1608C0.00307572 34.0173 5.204 39.4859 11.5691 39.4859Z" fill="#0057AC"/>
<path d="M11.9366 30.6897H11.18V1.3761H11.9366V30.6897ZM13.9296 30.0549H13.173V1.38378H13.9296V30.0549ZM9.91281 30.0549H9.1562V1.3761H9.91281V30.0549Z" fill="#4998D3"/>
<path d="M42.3794 13.4999C41.9134 14.0594 41.2275 14.3468 40.3233 14.3607L36.2973 14.4252C36.3265 14.2392 36.3434 14.0087 36.3511 13.7366C36.3588 13.4646 36.3619 13.1341 36.3619 12.7468V3.51561C36.3619 2.99918 36.3726 2.5473 36.3942 2.15998C36.4157 1.77266 36.531 1.46372 36.7386 1.23471C36.9462 1.0057 37.3168 0.882738 37.8474 0.868905V0.158813H33.0033V1.1056C33.2616 1.09177 33.52 1.0764 33.7783 1.06257C34.0367 1.04873 34.295 1.03336 34.5534 1.01953C34.5395 1.23471 34.5242 1.47448 34.5103 1.74038C34.4965 2.00628 34.4888 2.2814 34.4888 2.56882V11.8646C34.4888 12.3672 34.478 12.8144 34.4565 13.2094C34.435 13.6045 34.3242 13.9119 34.1228 14.1347C33.9213 14.3576 33.5492 14.4821 33.0033 14.5113V15.2214H43.6819L43.8111 10.7672H43.0791C43.0791 12.029 42.8453 12.9405 42.3794 13.4999Z" fill="black"/>
<path d="M46.879 14.8663C47.6756 15.332 48.5691 15.5656 49.5595 15.5656C50.047 15.5656 50.579 15.4873 51.1527 15.3289C51.7263 15.1706 52.286 14.9124 52.832 14.5543C53.3779 14.1962 53.8438 13.7151 54.2314 13.1126L53.7147 12.6822C53.4702 13.0127 53.1472 13.3139 52.7458 13.586C52.3445 13.858 51.9093 14.0732 51.4433 14.2315C50.9773 14.3898 50.5206 14.4682 50.0762 14.4682C49.2442 14.4682 48.5614 14.2423 48.0309 13.7904C47.5003 13.3385 47.1159 12.7007 46.879 11.8753C46.6422 11.05 46.5238 10.0924 46.5238 9.00267L54.1022 8.87357C54.1022 8.06972 53.9869 7.37039 53.7577 6.77557C53.5286 6.18075 53.2118 5.68584 52.8104 5.29083C52.4091 4.89582 51.9462 4.60226 51.4218 4.4086C50.8974 4.21493 50.3345 4.1181 49.7317 4.1181C48.6552 4.1181 47.7079 4.38708 46.8898 4.92503C46.0717 5.46297 45.4366 6.16999 44.9844 7.04454C44.5323 7.91909 44.3063 8.85973 44.3063 9.86339C44.3063 11.0254 44.5354 12.0336 44.9952 12.8867C45.4535 13.7397 46.0824 14.4006 46.879 14.8663ZM47.6756 5.69967C48.2277 5.20476 48.9213 4.9573 49.7532 4.9573C50.313 4.9573 50.7651 5.111 51.1096 5.41994C51.4541 5.72887 51.7017 6.12234 51.8524 6.60342C52.0031 7.0845 52.0784 7.58249 52.0784 8.09892H46.5884C46.7606 6.99382 47.122 6.19458 47.6756 5.69967Z" fill="black"/>
<path d="M60.2812 14.5435C59.9229 14.665 59.5569 14.7264 59.1832 14.7264C58.6373 14.7264 58.1282 14.5973 57.6546 14.3391C57.1809 14.0809 56.7934 13.7182 56.492 13.2525C56.1906 12.7868 56.026 12.2596 55.9968 11.6709H55.3294L55.4586 15.372H56.3628L56.2767 14.6189C56.635 14.8632 57.0948 15.0815 57.6546 15.2752C58.2143 15.4688 58.8525 15.5656 59.5707 15.5656C60.1874 15.5656 60.7794 15.455 61.3469 15.2321C61.9144 15.0093 62.3803 14.6619 62.7463 14.1885C63.1123 13.7151 63.2953 13.1203 63.2953 12.4025C63.2953 11.757 63.1308 11.2298 62.8001 10.8209C62.4695 10.4121 62.0466 10.0709 61.5299 9.79884C61.0132 9.52679 60.4826 9.27472 59.9367 9.04571C59.4338 8.84436 58.9602 8.63687 58.5158 8.42169C58.0713 8.20651 57.7084 7.95137 57.4285 7.6578C57.1486 7.36424 57.0087 6.99382 57.0087 6.54963C57.0087 6.11927 57.1948 5.73963 57.5685 5.40918C57.9422 5.07872 58.4589 4.91427 59.1186 4.91427C59.7353 4.91427 60.2381 5.06797 60.6257 5.3769C61.0132 5.68584 61.3069 6.07316 61.5084 6.53887C61.7098 7.00458 61.8236 7.48873 61.8528 7.99133H62.5418V4.22569H61.6375L61.6806 5.04337C61.2362 4.68525 60.7764 4.44087 60.3027 4.31176C59.8291 4.18266 59.3985 4.1181 59.0109 4.1181C58.2789 4.1181 57.6761 4.22262 57.2025 4.43011C56.7288 4.63761 56.3551 4.90351 56.0829 5.22628C55.8107 5.54905 55.617 5.89026 55.5016 6.24838C55.3863 6.6065 55.3294 6.93695 55.3294 7.2382C55.3294 7.78384 55.437 8.24186 55.6523 8.61535C55.8676 8.98884 56.1583 9.30393 56.5243 9.56214C56.8903 9.82036 57.2886 10.0432 57.7192 10.2292C58.1498 10.4152 58.5804 10.595 59.0109 10.7671C59.4554 10.9393 59.8721 11.1253 60.2597 11.3266C60.6472 11.528 60.9594 11.76 61.1962 12.0259C61.433 12.2918 61.5514 12.6254 61.5514 13.0265C61.5514 13.4139 61.4299 13.7335 61.1854 13.9841C60.9409 14.2346 60.6395 14.4221 60.2812 14.5435Z" fill="black"/>
<path d="M41.0445 26.9179C40.3048 26.4737 39.476 26.2508 38.5579 26.2508C37.8981 26.2508 37.2907 26.3615 36.7386 26.5844C36.1865 26.8072 35.7083 27.1193 35.3069 27.5204V21.1081H34.6826C34.5826 21.208 34.4427 21.3017 34.2627 21.3878C34.0828 21.4739 33.8183 21.5461 33.4661 21.603C33.114 21.6598 32.6234 21.689 31.9914 21.689V22.5928C32.2497 22.579 32.505 22.5636 32.7557 22.5498C33.0063 22.5359 33.2616 22.5206 33.52 22.5067C33.4907 22.7941 33.4738 23.0416 33.4661 23.2491C33.4584 23.4566 33.4554 23.6764 33.4554 23.9054L33.4123 37.3541H34.1658L34.6826 36.3858C35.1424 36.9022 35.6621 37.2496 36.2434 37.4294C36.8247 37.6092 37.3599 37.6984 37.8474 37.6984C38.8239 37.6984 39.7343 37.454 40.5816 36.9668C41.429 36.4796 42.1179 35.7864 42.6485 34.8903C43.179 33.9942 43.4451 32.9352 43.4451 31.7164C43.4451 30.5975 43.2298 29.6292 42.7992 28.8115C42.3686 27.9938 41.7842 27.3621 41.0445 26.9179ZM40.8077 34.6321C40.5278 35.313 40.1372 35.8478 39.6344 36.2352C39.1315 36.6225 38.5363 36.8162 37.8474 36.8162C37.4168 36.8162 37.0077 36.7378 36.6202 36.5795C36.2327 36.4211 35.9174 36.1383 35.6729 35.7295C35.4284 35.3207 35.3069 34.7366 35.3069 33.9758V28.5318C35.6375 28.1583 36.0358 27.8616 36.5018 27.6388C36.9678 27.4159 37.4383 27.3052 37.912 27.3052C38.6578 27.3052 39.276 27.5173 39.7635 27.94C40.251 28.3627 40.617 28.9437 40.8615 29.683C41.106 30.4223 41.2275 31.2784 41.2275 32.2544C41.2275 33.1581 41.0876 33.9512 40.8077 34.6321Z" fill="black"/>
<path d="M46.5238 21.6891C46.2224 21.6891 45.9533 21.8151 45.7164 22.0656C45.4796 22.3162 45.3612 22.622 45.3612 22.9801C45.3612 23.3383 45.4765 23.6395 45.7057 23.8839C45.9348 24.1283 46.2009 24.2497 46.5023 24.2497C46.8175 24.2497 47.0943 24.1283 47.3312 23.8839C47.568 23.6395 47.6864 23.3383 47.6864 22.9801C47.6864 22.622 47.5757 22.3162 47.3527 22.0656C47.1297 21.8151 46.8529 21.6891 46.5238 21.6891Z" fill="black"/>
<path d="M47.4711 36.5364C47.5142 36.292 47.5388 36.0599 47.5465 35.8371C47.5541 35.6142 47.5572 35.3606 47.5572 35.0732V26.3799H46.9329C46.8329 26.4798 46.693 26.5736 46.513 26.6597C46.3331 26.7457 46.0717 26.818 45.7272 26.8749C45.3827 26.9317 44.8952 26.9609 44.2632 26.9609V27.8647C44.5216 27.8508 44.7768 27.8355 45.0275 27.8216C45.2782 27.8078 45.5334 27.7924 45.7918 27.7786C45.7626 28.066 45.7411 28.3135 45.7272 28.521C45.7134 28.7285 45.7057 28.9483 45.7057 29.1773V34.0834C45.7057 34.5998 45.6918 35.0547 45.6626 35.4498C45.6334 35.8448 45.5334 36.1522 45.3612 36.375C45.189 36.5979 44.8799 36.7086 44.4354 36.7086V37.3541H48.8275V36.4719C48.5983 36.4857 48.3723 36.4964 48.1493 36.5041C47.9263 36.5118 47.7002 36.5226 47.4711 36.5364Z" fill="black"/>
<path d="M57.9022 26.9179C57.1625 26.4737 56.3336 26.2508 55.4155 26.2508C54.7558 26.2508 54.1483 26.3615 53.5963 26.5844C53.0442 26.8072 52.5659 27.1193 52.1645 27.5204V21.1081H51.5402C51.4402 21.208 51.3003 21.3017 51.1204 21.3878C50.9404 21.4739 50.6759 21.5461 50.3238 21.603C49.9716 21.6598 49.481 21.689 48.849 21.689V22.5928C49.1074 22.579 49.3626 22.5636 49.6133 22.5498C49.864 22.5359 50.1192 22.5206 50.3776 22.5067C50.3484 22.7941 50.3315 23.0416 50.3238 23.2491C50.3161 23.4566 50.313 23.6764 50.313 23.9054L50.2699 37.3541H51.0235L51.5402 36.3858C52 36.9022 52.5198 37.2496 53.1011 37.4294C53.6824 37.6092 54.2175 37.6984 54.705 37.6984C55.6816 37.6984 56.5919 37.454 57.4393 36.9668C58.2866 36.4796 58.9756 35.7864 59.5061 34.8903C60.0367 33.9942 60.3027 32.9352 60.3027 31.7164C60.3027 30.5975 60.0874 29.6292 59.6568 28.8115C59.2262 27.9938 58.6403 27.3621 57.9022 26.9179ZM57.6653 34.6321C57.3855 35.313 56.9949 35.8478 56.492 36.2352C55.9891 36.6225 55.394 36.8162 54.705 36.8162C54.2744 36.8162 53.8654 36.7378 53.4779 36.5795C53.0903 36.4211 52.7751 36.1383 52.5306 35.7295C52.286 35.3207 52.1645 34.7366 52.1645 33.9758V28.5318C52.4952 28.1583 52.8935 27.8616 53.3594 27.6388C53.8254 27.4159 54.296 27.3052 54.7696 27.3052C55.5155 27.3052 56.1337 27.5173 56.6212 27.94C57.1087 28.3627 57.4747 28.9437 57.7192 29.683C57.9637 30.4223 58.0852 31.2784 58.0852 32.2544C58.0852 33.1581 57.9452 33.9512 57.6653 34.6321Z" fill="black"/>
<path d="M64.1134 36.5364C64.1565 36.292 64.1857 36.06 64.1996 35.8371C64.2134 35.6142 64.2211 35.3606 64.2211 35.0732L64.1996 21.1081H63.5752C63.4752 21.208 63.3353 21.3017 63.1554 21.3878C62.9754 21.4739 62.7109 21.5461 62.3588 21.603C62.0066 21.6598 61.516 21.689 60.884 21.689V22.5928C61.1424 22.579 61.3976 22.5636 61.6483 22.5498C61.899 22.5359 62.1542 22.5206 62.4126 22.5067C62.3834 22.7941 62.3665 23.0416 62.3588 23.2491C62.3511 23.4566 62.348 23.6764 62.348 23.9054V34.0834C62.348 34.5998 62.3342 35.0548 62.305 35.4498C62.2757 35.8448 62.1758 36.1522 62.0035 36.375C61.8313 36.5979 61.5222 36.7086 61.0778 36.7086V37.3541H65.4698V36.4719C65.2407 36.4857 65.0146 36.4965 64.7916 36.5041C64.5686 36.5118 64.3426 36.5226 64.1134 36.5364Z" fill="black"/>
<path d="M69.3221 36.5364C69.3651 36.292 69.3897 36.0599 69.3974 35.8371C69.4051 35.6142 69.4082 35.3606 69.4082 35.0732V26.3799H68.7838C68.6839 26.4798 68.5439 26.5736 68.364 26.6597C68.1841 26.7457 67.9226 26.818 67.5782 26.8749C67.2337 26.9317 66.7462 26.9609 66.1142 26.9609V27.8647C66.3725 27.8508 66.6278 27.8355 66.8785 27.8216C67.1291 27.8078 67.3844 27.7924 67.6427 27.7786C67.6135 28.066 67.592 28.3135 67.5782 28.521C67.5643 28.7285 67.5566 28.9483 67.5566 29.1773V34.0834C67.5566 34.5998 67.5428 35.0547 67.5136 35.4498C67.4844 35.8448 67.3844 36.1522 67.2122 36.375C67.0399 36.5979 66.7308 36.7086 66.2864 36.7086V37.3541H70.6784V36.4719C70.4493 36.4857 70.2232 36.4964 70.0002 36.5041C69.7788 36.5118 69.5527 36.5226 69.3221 36.5364Z" fill="black"/>
<path d="M68.3532 24.2497C68.6685 24.2497 68.9453 24.1283 69.1821 23.8839C69.4189 23.6395 69.5373 23.3383 69.5373 22.9801C69.5373 22.622 69.4266 22.3162 69.2036 22.0656C68.9807 21.8151 68.7054 21.6891 68.3748 21.6891C68.0733 21.6891 67.8042 21.8151 67.5674 22.0656C67.3306 22.3162 67.2122 22.622 67.2122 22.9801C67.2122 23.3383 67.3275 23.6395 67.5566 23.8839C67.7873 24.1283 68.0518 24.2497 68.3532 24.2497Z" fill="black"/>
<path d="M79.5486 26.9717C78.7305 26.4906 77.8185 26.2509 76.8143 26.2509C75.7948 26.2509 74.8767 26.5121 74.0586 27.0363C73.2404 27.5604 72.5945 28.2735 72.1209 29.1773C71.6472 30.081 71.4104 31.1001 71.4104 32.2328C71.4104 33.2949 71.6503 34.2371 72.1317 35.0625C72.613 35.8878 73.262 36.5334 74.0801 36.9991C74.8982 37.4648 75.8101 37.6984 76.8143 37.6984C77.8339 37.6984 78.752 37.4325 79.5701 36.9022C80.3882 36.372 81.0372 35.6511 81.5185 34.7397C81.9983 33.8282 82.2398 32.8215 82.2398 31.7164C82.2398 30.6697 81.9953 29.7368 81.5078 28.9191C81.0203 28.1014 80.3667 27.4528 79.5486 26.9717ZM79.7531 34.5137C79.5594 35.2023 79.2395 35.7618 78.795 36.1921C78.3506 36.6225 77.7478 36.8377 76.9866 36.8377C76.2254 36.8377 75.5948 36.5872 75.092 36.0846C74.5891 35.582 74.2169 34.9333 73.9724 34.1372C73.7279 33.341 73.6064 32.4987 73.6064 31.6088C73.6064 30.8203 73.7171 30.081 73.9401 29.3925C74.1631 28.7039 74.5107 28.1444 74.9843 27.7141C75.458 27.2837 76.0685 27.0685 76.8143 27.0685C77.3879 27.0685 77.88 27.2192 78.2891 27.5204C78.6982 27.8217 79.0319 28.2274 79.2902 28.7362C79.5486 29.2449 79.7393 29.8121 79.8608 30.4361C79.9822 31.0601 80.0438 31.6949 80.0438 32.3404C80.0438 33.1012 79.9469 33.8252 79.7531 34.5137Z" fill="black"/>
<path d="M89.9258 35.1808C89.6536 35.582 89.3415 35.8986 88.9893 36.1276C88.6371 36.3566 88.2604 36.4719 87.859 36.4719C87.4715 36.4719 87.1562 36.3566 86.9117 36.1276C86.6672 35.8986 86.4919 35.5574 86.3842 35.1055C86.2766 34.6536 86.2228 34.1049 86.2228 33.4594L86.2658 27.4774L89.8828 27.4344V26.5952H86.2658V23.5826H85.5338C85.4185 24.1283 85.2078 24.6293 84.8987 25.0889C84.5896 25.5485 84.242 25.9097 83.8545 26.1756C83.467 26.4415 83.0871 26.5813 82.7134 26.5952V27.5204L84.3712 27.4989L84.3282 33.7391C84.3282 34.5998 84.4143 35.2915 84.5865 35.8156C84.7587 36.3397 84.9925 36.7378 85.2862 37.0098C85.5799 37.2819 85.8998 37.4648 86.2443 37.5585C86.5888 37.6523 86.9255 37.6984 87.2562 37.6984C87.4284 37.6984 87.636 37.68 87.8805 37.6446C88.125 37.6093 88.3895 37.5232 88.6771 37.3864C88.9647 37.2496 89.2615 37.0452 89.5706 36.7731C89.8797 36.5011 90.1919 36.1276 90.5071 35.6542L89.9258 35.1808Z" fill="black"/>
<path d="M100.626 36.5364C100.669 36.292 100.694 36.06 100.701 35.8371C100.709 35.6142 100.712 35.3606 100.712 35.0732L100.691 31.0709C100.677 29.4217 100.392 28.2059 99.8402 27.4236C99.2881 26.6412 98.387 26.2508 97.1382 26.2508C96.7369 26.2508 96.3232 26.3154 95.9003 26.4445C95.4774 26.5736 95.0683 26.7427 94.6731 26.9502C94.2779 27.1577 93.9226 27.399 93.6074 27.671V21.1081H92.983C92.8831 21.208 92.7431 21.3017 92.5632 21.3878C92.3833 21.4739 92.1188 21.5461 91.7666 21.603C91.4145 21.6598 90.9239 21.689 90.2918 21.689V22.5928C90.5502 22.579 90.8055 22.5636 91.0561 22.5498C91.3068 22.5359 91.5621 22.5206 91.8204 22.5067C91.7912 22.7941 91.7743 23.0416 91.7666 23.2491C91.7589 23.4566 91.7559 23.6764 91.7559 23.9054V34.0834C91.7559 34.5998 91.7374 35.0548 91.702 35.4498C91.6667 35.8448 91.5621 36.1522 91.3898 36.375C91.2176 36.5979 90.9085 36.7086 90.4641 36.7086V37.3541H94.8561V36.4719C94.627 36.4857 94.4009 36.4965 94.1779 36.5041C93.9549 36.5118 93.7289 36.5226 93.4997 36.5364C93.5428 36.292 93.572 36.06 93.5859 35.8371C93.5997 35.6142 93.6074 35.3606 93.6074 35.0732V28.7254C93.9226 28.3381 94.3363 28.023 94.8453 27.7786C95.3544 27.5342 95.8757 27.4051 96.4062 27.3913C97.2536 27.3775 97.8733 27.6787 98.2685 28.2951C98.6638 28.9114 98.8606 29.8367 98.8606 31.0709V34.0834C98.8606 34.5998 98.8468 35.0548 98.8175 35.4498C98.7883 35.8448 98.6884 36.1522 98.5161 36.375C98.3439 36.5979 98.0348 36.7086 97.5904 36.7086V37.3541H101.982V36.4719C101.753 36.4857 101.527 36.4965 101.304 36.5041C101.081 36.5118 100.855 36.5226 100.626 36.5364Z" fill="black"/>
<path d="M106.525 22.5928L108.936 24.8737L109.539 24.3788L107.731 21.4739C107.529 21.1434 107.329 20.9544 107.128 20.9036C106.926 20.8529 106.754 20.8606 106.611 20.9252C106.468 20.9897 106.374 21.0358 106.331 21.065C106.274 21.1081 106.205 21.2018 106.127 21.3448C106.048 21.4877 106.027 21.6675 106.062 21.8827C106.098 22.0979 106.253 22.3346 106.525 22.5928Z" fill="black"/>
<path d="M111.111 35.7187C110.71 35.9908 110.274 36.206 109.808 36.3643C109.342 36.5226 108.886 36.601 108.441 36.601C107.609 36.601 106.926 36.375 106.396 35.9232C105.865 35.4713 105.481 34.8334 105.244 34.0081C105.007 33.1827 104.889 32.2252 104.889 31.1354L112.467 31.0063C112.467 30.2025 112.352 29.5031 112.123 28.9083C111.894 28.3135 111.577 27.8186 111.175 27.4236C110.774 27.0286 110.311 26.735 109.787 26.5413C109.262 26.3477 108.7 26.2509 108.097 26.2509C107.02 26.2509 106.073 26.5198 105.255 27.0578C104.437 27.5957 103.802 28.3027 103.35 29.1773C102.897 30.0518 102.671 30.9925 102.671 31.9961C102.671 33.1581 102.9 34.1664 103.36 35.0194C103.82 35.8725 104.448 36.5334 105.244 36.9991C106.041 37.4648 106.934 37.6984 107.925 37.6984C108.412 37.6984 108.944 37.62 109.518 37.4617C110.091 37.3034 110.651 37.0452 111.197 36.6871C111.743 36.3289 112.209 35.8479 112.596 35.2454L112.08 34.815C111.835 35.1454 111.512 35.4467 111.111 35.7187ZM106.041 27.8324C106.593 27.3375 107.286 27.0901 108.118 27.0901C108.678 27.0901 109.13 27.2438 109.475 27.5527C109.819 27.8616 110.067 28.2551 110.217 28.7362C110.368 29.2173 110.443 29.7152 110.443 30.2317H104.953C105.126 29.1266 105.489 28.3273 106.041 27.8324Z" fill="black"/>
<path d="M123.297 42.0235C123.34 41.7791 123.364 41.547 123.372 41.3242C123.38 41.1013 123.383 40.8477 123.383 40.5603L123.361 26.38H122.758C122.643 26.5091 122.518 26.5982 122.382 26.6489C122.245 26.6997 122.099 26.7242 121.94 26.7242C121.582 26.7242 121.154 26.6459 120.659 26.4876C120.164 26.3292 119.615 26.2509 119.012 26.2509C117.993 26.2509 117.064 26.4983 116.224 26.9932C115.385 27.4881 114.717 28.1798 114.222 29.0697C113.727 29.9596 113.479 31.0063 113.479 32.2113C113.479 33.3164 113.694 34.2801 114.125 35.1055C114.556 35.9309 115.137 36.5687 115.869 37.0206C116.601 37.4725 117.411 37.6984 118.302 37.6984C118.991 37.6984 119.607 37.5801 120.153 37.3434C120.699 37.1067 121.158 36.7731 121.531 36.3428V39.5705C121.531 40.0869 121.517 40.5418 121.488 40.9368C121.459 41.3319 121.359 41.6393 121.187 41.8621C121.014 42.085 120.705 42.1956 120.261 42.1956V42.8412H124.653V41.959C124.424 41.9728 124.198 41.9835 123.975 41.9912C123.752 41.9974 123.526 42.0081 123.297 42.0235ZM121.531 35.2669C121.244 35.668 120.882 35.9985 120.444 36.2567C120.006 36.5149 119.55 36.644 119.077 36.644C118.374 36.644 117.767 36.4212 117.258 35.977C116.749 35.5328 116.361 34.9364 116.095 34.191C115.829 33.4455 115.697 32.6125 115.697 31.6949C115.697 30.7619 115.834 29.9489 116.106 29.2526C116.378 28.5563 116.765 28.0153 117.268 27.628C117.771 27.2407 118.366 27.047 119.055 27.047C119.672 27.047 120.161 27.1438 120.519 27.3375C120.878 27.5312 121.136 27.8186 121.294 28.1982C121.453 28.5779 121.531 29.0559 121.531 29.6292V35.2669Z" fill="black"/>
<path d="M134.793 36.5364C134.823 36.249 134.844 35.8986 134.858 35.482C134.872 35.0655 134.88 34.7427 134.88 34.5137L134.901 26.3799H134.277C134.118 26.5229 133.9 26.6566 133.62 26.778C133.34 26.8994 132.891 26.9609 132.274 26.9609H131.607V27.8432C131.865 27.8293 132.124 27.8186 132.382 27.8109C132.64 27.8032 132.899 27.7924 133.157 27.7786C133.114 28.023 133.085 28.2704 133.071 28.521C133.057 28.7715 133.05 29.0697 133.05 29.414V34.9441C132.748 35.3883 132.35 35.7725 131.855 36.0953C131.359 36.4181 130.84 36.5871 130.294 36.601C129.446 36.6148 128.848 36.3182 128.496 35.708C128.144 35.0978 127.969 34.1771 127.969 32.9429V26.3799H127.344C127.186 26.5229 126.967 26.6566 126.688 26.778C126.408 26.8994 125.959 26.9609 125.342 26.9609H124.675V27.8432C124.919 27.8293 125.167 27.8186 125.417 27.8109C125.668 27.8032 125.916 27.7924 126.16 27.7786C126.117 28.023 126.092 28.2597 126.085 28.4887C126.077 28.7177 126.074 28.9483 126.074 29.1773V33.0075C126.074 34.1833 126.206 35.1162 126.472 35.8048C126.738 36.4934 127.132 36.9806 127.656 37.268C128.181 37.5554 128.83 37.6984 129.605 37.6984C130.237 37.6984 130.867 37.537 131.499 37.2142C132.131 36.8915 132.67 36.5072 133.114 36.063C133.128 36.249 133.146 36.4503 133.168 36.6655C133.189 36.8807 133.222 37.1097 133.265 37.3541H136.344V36.4503C136.085 36.4642 135.827 36.4795 135.568 36.4934C135.31 36.5072 135.052 36.5226 134.793 36.5364Z" fill="black"/>
<path d="M145.451 35.7187C145.049 35.9908 144.614 36.206 144.148 36.3643C143.682 36.5226 143.225 36.601 142.781 36.601C141.949 36.601 141.266 36.375 140.736 35.9232C140.205 35.4713 139.821 34.8334 139.584 34.0081C139.347 33.1827 139.228 32.2252 139.228 31.1354L146.807 31.0063C146.807 30.2025 146.692 29.5031 146.462 28.9083C146.233 28.3135 145.916 27.8186 145.515 27.4236C145.114 27.0286 144.651 26.735 144.126 26.5413C143.602 26.3477 143.039 26.2509 142.436 26.2509C141.36 26.2509 140.413 26.5198 139.594 27.0578C138.776 27.5957 138.141 28.3027 137.689 29.1773C137.237 30.0518 137.011 30.9925 137.011 31.9961C137.011 33.1581 137.24 34.1664 137.7 35.0194C138.16 35.8725 138.787 36.5334 139.584 36.9991C140.38 37.4648 141.274 37.6984 142.264 37.6984C142.752 37.6984 143.284 37.62 143.857 37.4617C144.431 37.3034 144.991 37.0452 145.537 36.6871C146.083 36.3289 146.549 35.8479 146.936 35.2454L146.419 34.815C146.175 35.1454 145.852 35.4467 145.451 35.7187ZM140.38 27.8324C140.932 27.3375 141.626 27.0901 142.458 27.0901C143.018 27.0901 143.47 27.2438 143.814 27.5527C144.159 27.8616 144.406 28.2551 144.557 28.7362C144.708 29.2173 144.783 29.7152 144.783 30.2317H139.293C139.465 29.1266 139.827 28.3273 140.38 27.8324Z" fill="black"/>
<path d="M155.505 32.9537C155.174 32.5449 154.751 32.2036 154.235 31.9316C153.718 31.6595 153.187 31.4075 152.641 31.1785C152.139 30.9771 151.665 30.7696 151.22 30.5544C150.776 30.3393 150.413 30.0841 150.133 29.7906C149.853 29.497 149.713 29.1266 149.713 28.6824C149.713 28.252 149.899 27.8724 150.273 27.5419C150.647 27.2115 151.164 27.047 151.823 27.047C152.44 27.047 152.943 27.2007 153.33 27.5097C153.718 27.8186 154.012 28.2059 154.213 28.6716C154.414 29.1373 154.528 29.6215 154.558 30.1241H155.246V26.3584H154.342L154.385 27.1761C153.941 26.818 153.481 26.5736 153.007 26.4445C152.534 26.3154 152.103 26.2509 151.716 26.2509C150.984 26.2509 150.381 26.3554 149.907 26.5629C149.433 26.7704 149.06 27.0363 148.788 27.359C148.515 27.6818 148.322 28.023 148.206 28.3811C148.091 28.7393 148.034 29.0697 148.034 29.371C148.034 29.9166 148.142 30.3746 148.357 30.7481C148.572 31.1216 148.863 31.4367 149.229 31.6949C149.595 31.9531 149.993 32.176 150.424 32.362C150.854 32.5479 151.285 32.7278 151.716 32.8999C152.16 33.072 152.577 33.258 152.964 33.4594C153.352 33.6607 153.664 33.8928 153.901 34.1587C154.138 34.4246 154.256 34.7581 154.256 35.1593C154.256 35.5466 154.135 35.8663 153.89 36.1168C153.646 36.3674 153.344 36.5549 152.986 36.6763C152.628 36.7977 152.262 36.8592 151.888 36.8592C151.342 36.8592 150.833 36.7301 150.359 36.4719C149.886 36.2137 149.498 35.8509 149.197 35.3852C148.895 34.9195 148.731 34.3923 148.701 33.8037H148.034L148.163 37.5047H149.067L148.981 36.7516C149.34 36.996 149.799 37.2142 150.359 37.4079C150.919 37.6016 151.557 37.6984 152.275 37.6984C152.892 37.6984 153.484 37.5877 154.052 37.3649C154.619 37.142 155.085 36.7946 155.451 36.3213C155.817 35.8479 156 35.253 156 34.5353C156 33.8897 155.834 33.3625 155.505 32.9537Z" fill="black"/>
</svg>
